HIERARCHY
ROOT base
{
	OFFSET 0.0 0.0 0.0
	CHANNELS 6 Xposition Yposition Zposition Zrotation Yrotation Xrotation
	JOINT root
	{
		OFFSET 0 0 0
		CHANNELS 6 Xposition Yposition Zposition Zrotation Yrotation Xrotation
		JOINT chest
		{
			OFFSET 0 4.72302 0
			CHANNELS 3 Zrotation Yrotation Xrotation
			JOINT neck
			{
				OFFSET 0 4.47788 0
				CHANNELS 3 Zrotation Yrotation Xrotation
				End Site
				{
					OFFSET 0.0 0.0 0.0
				}
			}
			JOINT right_shoulder
			{
				OFFSET -0.481 4.87 3.6622
				CHANNELS 3 Zrotation Yrotation Xrotation
				JOINT right_elbow
				{
					OFFSET 0 -5.49576 0
					CHANNELS 3 Zrotation Yrotation Xrotation
					JOINT right_wrist
					{
						OFFSET 0 -5.17894 0
						CHANNELS 3 Zrotation Yrotation Xrotation
						End Site
						{
							OFFSET 0.0 0.0 0.0
						}
					}
				}
			}
			JOINT left_shoulder
			{
				OFFSET -0.481 4.87 -3.6622
				CHANNELS 3 Zrotation Yrotation Xrotation
				JOINT left_elbow
				{
					OFFSET 0 -5.49576 0
					CHANNELS 3 Zrotation Yrotation Xrotation
					JOINT left_wrist
					{
						OFFSET 0 -5.17894 0
						CHANNELS 3 Zrotation Yrotation Xrotation
						End Site
						{
							OFFSET 0.0 0.0 0.0
						}
					}
				}
			}
		}
		JOINT right_hip
		{
			OFFSET 0 0 1.69774
			CHANNELS 3 Zrotation Yrotation Xrotation
			JOINT right_knee
			{
				OFFSET 0 -8.43092 0
				CHANNELS 3 Zrotation Yrotation Xrotation
				JOINT right_ankle
				{
					OFFSET 0 -8.1974 0
					CHANNELS 3 Zrotation Yrotation Xrotation
					End Site
					{
						OFFSET 0.0 0.0 0.0
					}
				}
			}
		}
		JOINT left_hip
		{
			OFFSET 0 0 -1.69774
			CHANNELS 3 Zrotation Yrotation Xrotation
			JOINT left_knee
			{
				OFFSET 0 -8.43092 0
				CHANNELS 3 Zrotation Yrotation Xrotation
				JOINT left_ankle
				{
					OFFSET 0 -8.1974 0
					CHANNELS 3 Zrotation Yrotation Xrotation
					End Site
					{
						OFFSET 0.0 0.0 0.0
					}
				}
			}
		}
	}
	JOINT red_arrow
	{
		OFFSET 0 0 0
		CHANNELS 3 Zrotation Yrotation Xrotation
		End Site
		{
			OFFSET 0.0 0.0 0.0
		}
	}
	JOINT blue_arrow
	{
		OFFSET 0 0 0
		CHANNELS 3 Zrotation Yrotation Xrotation
		End Site
		{
			OFFSET 0.0 0.0 0.0
		}
	}
}
MOTION
Frames: 17
Frame Time: 0.0333333333333333
-13.155829834938 0 2.16874325424433 0 8.04134325227561 0 0 16.1075410366058 0 -38.435882971658 -0.922200348507921 9.66456812590715 0.221797983232894 -0.746534774137432 1.34713399232521 -25.9378644181994 -10.7876133473889 -4.8557620589602 15.8951278713401 8.39619965901237 -3.14328672217128 37.9415847262049 0 0 0 0 0 26.4524869273271 -22.0686498355319 0.252825922254263 17.8925650403459 0 0 0 0 0 47.7448512264446 -3.39797765291512 -7.45652581945527 -45.3320474836447 0 0 37.0360278898751 -3.42156733975066 -0.184628875394205 69.6469025510222 7.13514052803639 -6.07730322880472 -23.769003670131 0 0 -7.98775097318841 -10.917172817244 1.93213914192078 0 0 0 0 0 0
-12.5851159453392 0 2.28742345124483 0 7.85236874237252 0 0 16.6651880025864 0 -30.9928881655501 -3.07897030260174 8.71345223805939 1.74552131891135 -0.414532045408739 0.652110382483643 -24.6835451181229 -12.4123275452132 -5.27452191847919 11.5368258127467 5.92466941675765 -2.47059013616007 38.4102552315783 0 0 0 0 0 21.4412117155203 -18.3637491721215 1.18694942359809 19.0807754842126 0 0 0 0 0 33.6730908434243 -3.24812045252178 -5.32276516976003 -32.7469424095597 0 0 31.1313475429511 -4.58563120138089 -0.743359718251603 54.0658100824322 5.1778827715459 -5.51593707035653 -13.3038561257292 0 0 -10.7336222515627 -8.06120275865193 1.30491368682976 0 0 0 0 0 0
-12.062357288599 0 2.40480159819126 0 7.5448280758323 0 0 17.0962027549744 0 -24.8960821444744 -5.30352705500919 7.79313507570943 3.9177837980692 -0.0895969575936738 0.0333883924395909 -23.6305658270363 -13.6057059238321 -5.20067866955114 8.14768436060251 4.12731653440466 -1.84688854865994 37.6714302539634 0 0 0 0 0 16.7588469247705 -14.6348591187435 1.81208865315246 19.1937963319561 0 0 0 0 0 21.5062740245216 -2.06834607617744 -3.49912628451738 -19.8778892962044 0 0 24.6209553054999 -4.85025867618668 -1.17317552414133 40.7600636778899 3.71656832379897 -4.70931618171833 -4.70852921567898 0 0 -13.7578499622254 -4.27992031080074 0.879297852685566 0 0 0 0 0 0
-11.6343307495117 0 2.53128939718008 0 7.15567412069308 0 0 17.3655860424042 0 -19.8350439854791 -6.9597043601037 6.80279194607768 6.09708262882691 -0.287140695835694 -0.284869594122747 -22.6781424130431 -14.302446681238 -5.02189440785986 5.76129608607923 2.90210878987604 -1.3900057822638 36.3343046107175 0 0 0 0 0 12.7995333931475 -11.2038765911951 1.93594317926926 18.5430329833102 0 0 0 0 0 11.4486887692708 -0.882925011400702 -2.19343776127036 -7.90090669977687 0 0 18.4129158351571 -4.2433706199987 -1.25324282814833 30.6598939731033 2.11220577800752 -3.89167891296399 0.0022529183459787 0 0 -14.641815006189 -1.64947423273224 0.269870410896524 0 0 0 0 0 0
-11.2976223349571 0 2.66112046986818 0 6.69218029021273 0 0 17.4661137938499 0 -15.3415049928011 -8.49723998169441 5.80864164175835 7.93178447909929 -0.651262363277571 -0.351724934126502 -22.1233864032301 -14.4736499471396 -4.83418913018913 4.34811199206688 2.14202662950321 -1.26206707076253 34.0637516551194 0 0 0 0 0 9.48780124986298 -8.21994308936728 1.67035906737266 17.2367593045453 0 0 0 0 0 4.24838001942525 0.216258840718051 -1.3130345858304 0.0368164371788211 0 0 12.9159158277077 -3.19263020219738 -0.914795775531984 23.5098296651404 0.707065807378041 -2.72496015259284 3.78799177230314E-07 0 0 -10.8263047070459 0.975256491755819 -0.617124197125337 0 0 0 0 0 0
-10.9966440141201 0 2.79038061201572 0 6.12049166759673 0 0 17.4189234733582 0 -10.9999098305658 -10.6671409097702 5.07337633089287 9.7770285427384 0.463157499794003 -0.415772293290838 -22.3154902282687 -14.3352578682419 -4.7854462132659 2.59881887822796 1.46779904163636 -0.709906605912894 30.7524247190784 0 0 0 0 0 6.86190843218676 -6.17977272574833 1.42203265092397 15.8049774846868 0 0 0 0 0 -0.277891966379753 3.3303637581488 -0.937733248566867 0.0559709589892347 0 0 10.9723913918097 -2.84770398704277 -1.41886713789196 17.4512958630458 0.95451090388858 -1.5511039655179 0.0105802014806611 0 0 -6.70763435582081 1.95108026647713 -1.21075783602872 0 0 0 0 0 0
-10.8513039916754 0 2.88884321898222 0 5.49621224607633 0 0 17.4270299196243 0 -7.54480885839846 -11.7614919830177 5.06965634609737 10.6154028971368 0.781316205204814 -0.683014944300298 -21.7806794106882 -14.0064588381308 -5.0200896618194 2.25485652975648 1.04072341969458 -0.889307193251497 28.4657747151538 0 0 0 0 0 5.64194492071579 -5.3927969420643 1.6804066518473 14.6070084080434 0 0 0 0 0 -3.96538848704792 4.61278764346402 -1.44805693835484 4.70913565301757E-05 0 0 10.6222366163652 -2.26875692413532 -2.95021634578021 13.3007178607232 0.827345871290683 -1.62387631994014 0.000142862974967191 0 0 -6.06325149773211 3.59005750414623 -1.81701109353505 0 0 0 0 0 0
-10.7783039078116 0 3.03302698880434 0 4.79595318244835 0 0 17.429558968544 0 -4.44930431723167 -13.2662458138575 4.77070950332953 11.1529411267207 1.31089337805694 -0.641658093481628 -21.8475192122257 -13.4637685587723 -4.94733162473703 2.34680994696301 0.66297429662095 -1.48669878472364 26.8825641863015 0 0 0 0 0 4.62421702762903 -4.8427393611015 2.07967126171955 14.7791086845602 0 0 0 0 0 -7.23702177204478 6.31377088956436 -1.71249294103589 0.000108933015481284 0 0 10.5681286071014 -1.43402199810288 -3.28453096724637 9.64094137181064 0.958991974447723 -1.21367971631031 0.010891984775285 0 0 -5.60394709462516 5.38740948312032 -2.47147774714296 0 0 0 0 0 0
-10.8051192503422 0 3.19723183512688 0 4.02779350163989 0 0 17.4171742320061 0 -2.10359703096029 -14.585617805375 4.58045492975104 11.5648613913435 1.7953804088538 -0.586140119520471 -21.6170762611277 -12.890797473847 -4.92241417587546 2.6297490492877 0.353421323028033 -2.17296906228802 25.8895041998532 0 0 0 0 0 3.87146073648719 -4.34681684214531 2.299877814443 15.6596430119799 0 0 0 0 0 -9.49197568803486 7.63086936922684 -1.86028980241371 8.28587675431075E-05 0 0 10.8766022112764 -0.637836033905133 -3.70564776221337 7.04908741054174 1.31381163946 -0.774063850412072 0.00355321498389738 0 0 -5.48889726688399 6.91286462114898 -3.20580339839963 0 0 0 0 0 0
-11.2461278930306 0 3.31970393508673 0 3.26533223369033 0 0 17.47270206213 0 -3.31749618429155 -14.4635061389854 4.41146871576672 9.57755054416858 1.7718389881189 0.343094539000769 -19.4044084853689 -11.8693093284016 -4.27578460165699 6.82017739417239 -0.766788636211094 -7.20004991999109 21.161090595953 0 0 0 0 0 5.7772709181961 -6.37486606605095 5.0849203403405 12.0378745866518 0 0 0 0 0 -6.65684045385184 5.79703469029183 -0.822725582120218 0.000423460498790988 0 0 9.31703772893809 2.0703066956913 -3.72338686941745 10.0219720506811 2.30561151823674 0.218942360854388 -0.443502912468293 0 0 -9.0053378142213 6.9301339163989 -3.75751195817794 0 0 0 0 0 0
-11.7324352875352 0 3.42072161585093 0 2.49006252093354 0 0 17.5275508642197 0 -4.94388979054174 -14.6776926361069 4.44364898608462 5.11470114807595 1.88766693527657 1.22014827190614 -20.7343449580406 -11.6560955473375 -3.53046488286393 10.2375810299015 -2.95284117900322 -16.0947473292788 13.9509081203348 0 0 0 0 0 4.10612010664638 -8.22542537254806 13.0007798529905 5.56267041148529 0 0 0 0 0 -3.35268613034958 4.27054367474154 0.0811294837660868 0.00248813298552102 0 0 7.55392130474634 4.78681219419042 -3.8489929982257 12.2469336379 2.65371107490351 1.03663249664858 3.4303091372695E-07 0 0 -12.0605323459091 7.89419320694158 -4.379289671002 0 0 0 0 0 0
-12.2103965118527 0 3.50671348422766 0 1.78559764950721 0 0 17.558986222744 0 -7.20423984098513 -13.2829246540963 4.434816466417 0.475076266604827 1.4914697659744 2.82980847831147 -23.4083575672869 -12.5419300468417 -3.5364272838525 12.1627889845025 -7.3383683508996 -29.6444820761047 4.25542172321633 0 0 0 0 0 -2.71532554413014 -8.43296340794549 25.7022471445258 -0.00405558531913541 0 0 0 0 0 0.472104127666021 3.31678993540692 1.20920691576505 0.00611492153819063 0 0 5.96991638382311 5.27423170556666 -4.31953762648333 15.2576260063166 3.05149968288557 1.74231709136975 0.0151111382006786 0 0 -14.0271793294782 7.23233699846149 -4.7050076718773 0 0 0 0 0 0
-12.6747075855732 0 3.58138861060143 0 1.24062403094992 0 0 17.5785446405411 0 -9.41514062151262 -10.2179710790501 4.24715968779945 -4.96806100657624 0.875976680211799 5.04940652216557 -25.3043405815733 -14.7645225501803 -3.87299087833588 12.6891552154766 -14.5651048127225 -45.4885799260612 -0.000480457106942076 0 0 0 0 0 -12.9950234775306 -4.25327745548867 40.4630189955242 -0.000372815812321796 0 0 0 0 0 4.19211658792865 1.75993346876201 2.22468656337117 0.00408675889614683 0 0 4.61670401200615 4.46802060083549 -4.89128162453982 18.7403663725774 3.09800428722728 1.79633085033608 0.00336192132886409 0 0 -16.533826932795 6.03051492425659 -4.49468890031242 0 0 0 0 0 0
-13.1720250755548 0 3.60933202505112 0 0.86902938076378 0 0 17.6102922677994 0 -11.1794711903084 -6.92764126094889 4.26225045284769 -11.762971001648 0.530192666736809 7.42745112082892 -26.7092267424062 -15.0846558395618 -3.71301352538743 14.0914260724812 -23.1026704740232 -58.4622779538395 -1.46731322919189E-06 0 0 0 0 0 -20.789365636909 3.71918185557151 51.2809241107183 -0.000232034249333694 0 0 0 0 0 7.56477833928432 -1.0547538245038 2.45481707194403 0.000641684891653292 0 0 3.19426951216003 4.45267414355162 -5.23050898372612 21.9920954590908 2.95918874875469 1.06896907200578 0.0013385864891415 0 0 -20.2410236419545 4.58512108039883 -4.07535471432805 0 0 0 0 0 0
-13.8775153696537 0 3.55626600235701 0 0.643052657527655 0 0 17.6974153161049 0 -14.4354456150641 -4.15848960912439 5.167295629637 -19.2775012038992 0.297673804559647 9.19734665889129 -26.759745445893 -12.306153567498 -2.22422901253687 16.0761875380814 -29.2960817770407 -63.6550452910862 -0.00027116414316298 0 0 0 0 0 -24.8206322318727 12.6668469420159 54.4474464262161 -5.72730104644596E-06 0 0 0 0 0 14.4296616630679 -4.20391569404912 1.38694286086117 -2.30574529185325 0 0 1.39963542352611 5.29841717044623 -5.43738270612268 27.3189661641393 4.87174459019287 -0.699261349752571 3.2990083491763E-05 0 0 -27.7808609090831 2.86551681388118 -3.00006269932076 0 0 0 0 0 0
-14.7534284889698 0 3.52674759924412 0 0.509335305048185 0 0 17.8035942077637 0 -19.3820337062047 -2.39681695344108 6.24167698214073 -26.6477069259467 0.36203161590648 10.0075792359153 -24.1656131883932 -7.86410796074999 0.319321603851485 15.8149559309489 -31.3066151052726 -58.8328978664032 -3.69927312557402E-07 0 0 0 0 0 -26.6095318547901 19.7827504722087 51.2593583428379 -0.0408273357018322 0 0 0 0 0 26.9588911788572 -5.34788665418391 -0.15162435489074 -10.9458297912043 0 0 -0.752196891667757 5.97377528374216 -6.09092482773545 36.6230795712098 8.98188442420379 -1.66028815445987 -6.1396651557741 0 0 -32.7317919252465 0.809727802281765 -1.16127176841259 0 0 0 0 0 0
-15.4930258274078 0 3.64709078073502 0 0.446930444965612 0 0 17.7459242343903 0 -24.0069808290718 -1.08315067824763 6.66075566819582 -31.1173950578485 0.248512132243793 10.0354031968102 -20.2722424131799 -4.59256620026417 2.15053527793764 11.8158352261345 -29.6736805415268 -46.6874514342838 -3.96980774811357E-05 0 0 0 0 0 -27.2083094199088 24.9749515656736 47.0114745234284 -6.0275038830542E-06 0 0 0 0 0 39.6594436752028 -4.29610374707152 -0.829297194238414 -22.2452875040441 0 0 -2.32580171496808 6.49601396957203 -7.09887397537959 47.6463058690042 12.2530811642325 -0.349369516121907 -18.1690374375697 0 0 -31.9350178079157 -1.69979387264721 0.454315285001522 0 0 0 0 0 0
